<svg width="1440" height="250" viewBox="0 0 1440 250" fill="none" xmlns="http://www.w3.org/2000/svg">
<path d="M47.768 171.109C29.7708 157.883 -1.22534 144.658 -1.22534 89.6677L-1.2253 -1H1439.56C1439.56 36.5884 1438.76 89.25 1439.56 176.678C1440.56 285.962 1439.56 240.717 1439.56 240.717C1439.56 240.717 1341.57 191.991 1283.58 180.854C1225.59 169.717 1150.6 203.129 1120.6 221.923C1090.61 240.717 988.624 244.197 924.634 230.972C870.642 219.813 830.648 180.854 755.659 187.119C694.669 192.214 643.077 219.138 596.684 221.923C550.291 224.707 493.366 221.227 461.705 211.481C419.044 192.919 322.996 161.098 257.736 187.119C147.753 230.972 68.4543 186.311 47.768 171.109Z" fill="#F1F0FF"/>
</svg>
