<svg width="96" height="15" viewBox="0 0 96 15" fill="none" xmlns="http://www.w3.org/2000/svg">
<path d="M34.8148 3.40001H37.3828V8.15201C37.3668 8.52001 37.3428 8.86401 37.3108 9.18401C37.2788 9.48801 37.2468 9.76001 37.2148 10C37.0708 10.592 36.8948 11.064 36.6868 11.416C36.4788 11.768 36.1588 12.088 35.7268 12.376C35.2948 12.648 34.8308 12.824 34.3348 12.904C33.8388 12.984 33.3348 13.024 32.8228 13.024H32.9428C32.4308 13.024 31.9188 12.968 31.4068 12.856C30.8948 12.744 30.4308 12.568 30.0148 12.328C29.8068 12.2 29.6308 12.064 29.4868 11.92C29.3428 11.776 29.2148 11.616 29.1028 11.44C28.9908 11.248 28.8868 11.04 28.7908 10.816C28.7108 10.576 28.6388 10.304 28.5748 10C28.5268 9.76001 28.4868 9.48801 28.4548 9.18401C28.4388 8.86401 28.4228 8.52001 28.4068 8.15201V3.40001H31.0228V8.20001C31.0548 8.60001 31.0788 8.92001 31.0948 9.16001C31.0948 9.28801 31.1108 9.42401 31.1428 9.56801C31.1748 9.69601 31.2148 9.84001 31.2628 10C31.4068 10.336 31.6148 10.608 31.8868 10.816C32.1748 11.024 32.4708 11.128 32.7748 11.128H33.0148C33.3188 11.128 33.6148 11.032 33.9028 10.84C34.2068 10.632 34.4388 10.344 34.5988 9.97601C34.6948 9.68801 34.7508 9.43201 34.7668 9.20801C34.7988 8.98401 34.8148 8.62401 34.8148 8.12801V3.40001Z" fill="black"/>
<path d="M44.797 3.40001L48.277 13H45.205L44.845 11.872H42.541V10.192H44.317L43.453 7.50401L41.365 13H38.533L42.109 3.40001H44.797Z" fill="black"/>
<path d="M49.0447 3.40001H55.0447C55.3807 3.40001 55.6927 3.47201 55.9807 3.61601C56.2847 3.74401 56.5407 3.92001 56.7487 4.14401C56.9727 4.35201 57.1487 4.60001 57.2767 4.88801C57.4047 5.17601 57.4767 5.48001 57.4927 5.80001C57.4767 6.15201 57.4127 6.44801 57.3007 6.68801C57.1887 6.92801 57.0447 7.13601 56.8687 7.31201C56.6927 7.48801 56.4847 7.64801 56.2447 7.79201C56.0207 7.92001 55.7807 8.05601 55.5247 8.20001C56.0047 8.39201 56.3727 8.66401 56.6287 9.01601C56.9007 9.36801 57.0927 9.76001 57.2047 10.192C57.3327 10.624 57.4047 11.088 57.4207 11.584C57.4527 12.064 57.4687 12.536 57.4687 13H54.5647C54.5647 12.52 54.5567 12.08 54.5407 11.68C54.5247 11.28 54.4687 10.928 54.3727 10.624C54.2927 10.32 54.1727 10.064 54.0127 9.85601C53.8527 9.64801 53.6367 9.48001 53.3647 9.35201C53.2207 9.32001 53.0447 9.28801 52.8367 9.25601C52.7247 9.24001 52.6287 9.22401 52.5487 9.20801C52.4847 9.19201 52.4367 9.17601 52.4047 9.16001V7.48001C52.5487 7.48001 52.7407 7.48001 52.9807 7.48001C53.2367 7.48001 53.4767 7.42401 53.7007 7.31201C53.9407 7.20001 54.1407 7.06401 54.3007 6.90401C54.4767 6.74401 54.5647 6.53601 54.5647 6.28001C54.5647 6.23201 54.5407 6.12801 54.4927 5.96801C54.4447 5.80801 54.3807 5.68001 54.3007 5.58401C54.2207 5.48801 54.1327 5.42401 54.0367 5.39201C53.9567 5.34401 53.7967 5.32001 53.5567 5.32001H51.5647V13H49.0447V3.40001Z" fill="black"/>
<path d="M58.5715 3.40001V5.34401H61.2595V13H63.8995V5.34401H66.5875V3.42401L66.5395 3.40001H58.5715Z" fill="black"/>
<path d="M67.7595 3.40001H75.7275V5.32001H70.3995V11.08H75.7755V13H67.7595V3.40001ZM71.1435 9.04001V7.36001H75.2235V9.04001H71.1435Z" fill="black"/>
<path d="M76.9236 3.40001H82.9236C83.2596 3.40001 83.5716 3.47201 83.8596 3.61601C84.1636 3.74401 84.4196 3.92001 84.6276 4.14401C84.8516 4.35201 85.0276 4.60001 85.1556 4.88801C85.2836 5.17601 85.3556 5.48001 85.3716 5.80001C85.3556 6.15201 85.2916 6.44801 85.1796 6.68801C85.0676 6.92801 84.9236 7.13601 84.7476 7.31201C84.5716 7.48801 84.3636 7.64801 84.1236 7.79201C83.8996 7.92001 83.6596 8.05601 83.4036 8.20001C83.8836 8.39201 84.2516 8.66401 84.5076 9.01601C84.7796 9.36801 84.9716 9.76001 85.0836 10.192C85.2116 10.624 85.2836 11.088 85.2996 11.584C85.3316 12.064 85.3476 12.536 85.3476 13H82.4436C82.4436 12.52 82.4356 12.08 82.4196 11.68C82.4036 11.28 82.3476 10.928 82.2516 10.624C82.1716 10.32 82.0516 10.064 81.8916 9.85601C81.7316 9.64801 81.5156 9.48001 81.2436 9.35201C81.0996 9.32001 80.9236 9.28801 80.7156 9.25601C80.6036 9.24001 80.5076 9.22401 80.4276 9.20801C80.3636 9.19201 80.3156 9.17601 80.2836 9.16001V7.48001C80.4276 7.48001 80.6196 7.48001 80.8596 7.48001C81.1156 7.48001 81.3556 7.42401 81.5796 7.31201C81.8196 7.20001 82.0196 7.06401 82.1796 6.90401C82.3556 6.74401 82.4436 6.53601 82.4436 6.28001C82.4436 6.23201 82.4196 6.12801 82.3716 5.96801C82.3236 5.80801 82.2596 5.68001 82.1796 5.58401C82.0996 5.48801 82.0116 5.42401 81.9156 5.39201C81.8356 5.34401 81.6756 5.32001 81.4356 5.32001H79.4436V13H76.9236V3.40001Z" fill="black"/>
<path d="M86.3784 10.024H88.9704C89.1464 10.344 89.3864 10.608 89.6904 10.816C89.9944 11.024 90.3624 11.128 90.7944 11.128C90.9224 11.128 91.0744 11.112 91.2504 11.08C91.4264 11.048 91.5864 11 91.7304 10.936C91.8744 10.856 91.9944 10.76 92.0904 10.648C92.2024 10.536 92.2584 10.4 92.2584 10.24C92.2584 9.93601 92.1144 9.70401 91.8264 9.54401C91.5384 9.38401 91.1784 9.24001 90.7464 9.11201C90.3304 8.98401 89.8664 8.86401 89.3544 8.75201C89.0024 8.65601 88.6504 8.54401 88.2984 8.41601C87.9464 8.27201 87.6344 8.10401 87.3624 7.91201C87.1064 7.70401 86.8904 7.45601 86.7144 7.16801C86.5544 6.88001 86.4744 6.52001 86.4744 6.08801C86.4744 5.54401 86.6024 5.09601 86.8584 4.74401C87.1304 4.37601 87.4664 4.09601 87.8664 3.90401C88.2824 3.69601 88.7384 3.56001 89.2344 3.49601C89.7464 3.41601 90.2424 3.37601 90.7224 3.37601C91.1384 3.37601 91.5864 3.40801 92.0664 3.47201C92.5624 3.52001 93.0184 3.63201 93.4344 3.80801C93.8504 3.98401 94.1944 4.24001 94.4664 4.57601C94.7384 4.91201 94.8744 5.34401 94.8744 5.87201L94.8984 6.08801H92.2344C92.0264 5.68801 91.8104 5.43201 91.5864 5.32001C91.3624 5.20801 91.0664 5.15201 90.6984 5.15201C90.5384 5.15201 90.3864 5.16801 90.2424 5.20001C90.1144 5.21601 89.9944 5.25601 89.8824 5.32001C89.7864 5.38401 89.7064 5.47201 89.6424 5.58401C89.5944 5.68001 89.5704 5.80801 89.5704 5.96801C89.5704 6.01601 89.5624 6.07201 89.5464 6.13601C89.5464 6.20001 89.5544 6.26401 89.5704 6.32801C89.5864 6.39201 89.6104 6.44801 89.6424 6.49601C89.6904 6.52801 89.7544 6.55201 89.8344 6.56801C90.0904 6.63201 90.3544 6.69601 90.6264 6.76001C90.9144 6.82401 91.2104 6.88801 91.5144 6.95201C92.1224 7.06401 92.6984 7.24001 93.2424 7.48001C93.7864 7.72001 94.2344 8.04001 94.5864 8.44001C94.9544 8.84001 95.1384 9.36001 95.1384 10C95.1384 10.544 95.0024 11.008 94.7304 11.392C94.4584 11.76 94.1144 12.072 93.6984 12.328C93.2824 12.568 92.8184 12.744 92.3064 12.856C91.7944 12.968 91.2904 13.024 90.7944 13.024C90.2664 13.024 89.7464 12.976 89.2344 12.88C88.7224 12.768 88.2504 12.592 87.8184 12.352C87.4024 12.112 87.0584 11.808 86.7864 11.44C86.5304 11.056 86.3944 10.584 86.3784 10.024Z" fill="black"/>
<path d="M0.624687 0.199997H1.26469V13H0.624687V0.199997ZM3.18469 0.199997H4.14469V13H3.18469V0.199997ZM5.74469 0.199997H7.02469V13H5.74469V0.199997ZM8.30469 0.199997H9.90469V13H8.30469V0.199997ZM10.8647 0.199997H13.1047V13H10.8647V0.199997ZM20.5287 2.696C20.3794 2.696 20.1874 2.728 19.9527 2.792C19.7394 2.83466 19.5367 2.89866 19.3447 2.984C19.1527 3.06933 18.9714 3.19733 18.8007 3.368C18.7154 3.45333 18.6407 3.54933 18.5767 3.656C18.5127 3.74133 18.4487 3.848 18.3847 3.976C18.3207 4.08266 18.2567 4.22133 18.1927 4.392C18.15 4.54133 18.0967 4.73333 18.0327 4.968C18.0114 5.48 17.99 5.90666 17.9687 6.248C17.9687 6.58933 17.9687 6.83466 17.9687 6.984C17.9687 7.28266 17.99 7.592 18.0327 7.912C18.0754 8.232 18.182 8.584 18.3527 8.968C18.566 9.43733 18.854 9.81066 19.2167 10.088C19.6007 10.3867 19.91 10.536 20.1447 10.536L20.4007 10.504C20.4007 10.3333 20.326 10.0773 20.1767 9.736C20.0274 9.39466 19.718 9.11733 19.2487 8.904C20.0807 8.02933 21.0407 7.51733 22.1287 7.368C22.598 7.624 22.918 7.93333 23.0887 8.296C23.0887 8.01866 23.0887 7.76266 23.0887 7.528C23.0887 7.31466 23.0887 7.13333 23.0887 6.984C23.11 6.83466 23.11 6.58933 23.0887 6.248C23.0674 5.90666 23.046 5.45866 23.0247 4.904C22.8967 4.47733 22.7687 4.14666 22.6407 3.912C22.5127 3.67733 22.374 3.48533 22.2247 3.336C21.99 3.12266 21.702 2.96266 21.3607 2.856C21.0407 2.74933 20.7634 2.696 20.5287 2.696ZM21.1047 13.032H20.7527C20.07 13.032 19.366 12.9573 18.6407 12.808C17.9367 12.6587 17.3074 12.424 16.7527 12.104C16.1767 11.7627 15.7607 11.3573 15.5047 10.888C15.2274 10.4187 14.9927 9.78933 14.8007 9C14.6727 8.36 14.6087 7.784 14.6087 7.272C14.5874 6.78133 14.598 6.26933 14.6407 5.736C14.6834 5.20266 14.7367 4.69066 14.8007 4.2C14.9927 3.45333 15.238 2.84533 15.5367 2.376C15.8567 1.90666 16.2727 1.50133 16.7847 1.16C17.062 0.98933 17.3394 0.850663 17.6167 0.743997C17.9154 0.615996 18.2354 0.50933 18.5767 0.423997C19.2807 0.274664 19.8354 0.199997 20.2407 0.199997H20.8807C21.3714 0.199997 21.9794 0.274664 22.7047 0.423997C23.046 0.50933 23.366 0.615996 23.6647 0.743997C23.9847 0.850663 24.2834 0.98933 24.5607 1.16C25.094 1.50133 25.51 1.90666 25.8087 2.376C26.1074 2.84533 26.3527 3.45333 26.5447 4.2C26.566 4.456 26.5874 4.712 26.6087 4.968C26.6514 5.224 26.6834 5.48 26.7047 5.736C26.7687 6.26933 26.7794 6.78133 26.7367 7.272C26.7154 7.76266 26.6514 8.33866 26.5447 9C26.3527 9.78933 26.118 10.4187 25.8407 10.888C25.5634 11.3787 25.3927 11.656 25.3287 11.72C25.6914 12.4667 26.1074 12.936 26.5767 13.128C25.6594 13.96 24.6994 14.472 23.6967 14.664C23.0567 14.408 22.598 14.088 22.3207 13.704C22.0647 13.3413 21.894 13.128 21.8087 13.064C21.7447 13.0213 21.51 13.0107 21.1047 13.032Z" fill="#6C63FF"/>
</svg>
